<?xml version="1.0" standalone="no"?>
<!DOCTYPE svg PUBLIC "-//W3C//DTD SVG 20010904//EN"
 "http://www.w3.org/TR/2001/REC-SVG-20010904/DTD/svg10.dtd">
<svg version="1.0" xmlns="http://www.w3.org/2000/svg"
 width="224.000000pt" height="224.000000pt" viewBox="0 0 224.000000 224.000000"
 preserveAspectRatio="xMidYMid meet">
<metadata>
Created by potrace 1.11, written by Peter Selinger 2001-2013
</metadata>
<g transform="translate(0.000000,224.000000) scale(0.100000,-0.100000)"
fill="#000000" stroke="none">
<path d="M1049 2231 c-44 -14 -73 -32 -112 -70 -40 -37 -53 -60 -85 -147 -25
-67 -77 -142 -113 -163 -16 -9 -29 -19 -29 -23 0 -11 2 -10 43 7 50 20 50 21
25 -27 -44 -86 -103 -153 -145 -164 -13 -3 -23 -10 -23 -14 0 -9 123 -2 168
10 36 10 35 13 33 -75 -2 -74 -8 -95 -28 -95 -12 0 -14 -7 -10 -33 5 -32 4
-33 -31 -35 -118 -8 -223 -70 -259 -152 -20 -47 -34 -191 -21 -207 13 -16 89
-17 141 -2 37 10 38 9 102 -49 36 -33 78 -62 94 -65 22 -5 32 -15 41 -41 10
-32 9 -37 -26 -83 -39 -51 -85 -143 -102 -205 -9 -34 -7 -41 18 -77 16 -21 33
-42 39 -46 6 -3 9 -16 6 -28 -3 -12 -8 -53 -10 -92 -2 -38 -4 -72 -4 -75 -1
-3 -17 -14 -36 -24 -19 -10 -37 -27 -40 -37 -7 -20 15 -49 37 -49 7 0 -2 -9
-20 -20 -18 -11 -35 -27 -39 -35 -14 -38 67 -77 209 -100 113 -18 399 -13 496
8 131 30 179 69 137 111 -14 14 -13 18 17 45 l32 29 -33 31 c-18 17 -39 31
-46 31 -8 0 -12 15 -12 43 0 23 -3 68 -7 100 -7 56 -7 58 29 94 31 33 35 43
32 74 -7 53 -55 156 -103 220 -36 49 -41 61 -35 90 6 30 11 34 44 37 41 3 105
43 144 91 23 28 25 28 67 16 45 -14 132 -13 146 1 13 14 -6 178 -25 213 -38
75 -130 132 -231 143 -53 6 -63 13 -57 39 3 12 1 24 -5 28 -17 10 -25 72 -27
196 -2 148 -2 147 -29 188 -21 31 -23 40 -15 77 26 115 -41 244 -150 293 -49
22 -150 31 -192 18z m261 -1924 c0 -5 -4 -5 -10 -2 -5 3 -10 14 -10 23 0 15 2
15 10 2 5 -8 10 -19 10 -23z"/>
</g>
</svg>
